# xmcd CD database file generated by Grip 3.2.0
# 
# Track frame offsets:
#       150
#       16374
#       35038
#       57569
#       78650
#       95270
#       116705
#       137045
#       155837
#       172933
#       182779
#       197256
#       216122
# 
# Disc length: 3196 seconds
# 
# Revision: 4
# Processed by: cddbd v1.5.1PL0 Copyright (c) Steve Scherf et al.
# Submitted via: Grip 3.2.0
# 
DISCID=b40c7a0d
DTITLE=Fink - Haiku Ambulanz
DYEAR=2003
DGENRE=Country
TTITLE0=Fliegen
TTITLE1=Kein schönes Lied
TTITLE2=Kein Wagen
TTITLE3=Shuffle and Kompott
TTITLE4=Niemand gibt gern auf
TTITLE5=Der Hahn
TTITLE6=Wo geht das Licht an
TTITLE7=Wohin du gehst
TTITLE8=Sonne nicht gesehen
TTITLE9=Haiku Ambulanz
TTITLE10=Die Eine
TTITLE11=Talking Darum Blues
TTITLE12=An Dich werd' ich denken
EXTD=Digipak.\r\nTR 20322
EXTT0=
EXTT1=
EXTT2=
EXTT3=
EXTT4=
EXTT5=
EXTT6=
EXTT7=
EXTT8=
EXTT9=
EXTT10=
EXTT11=
EXTT12=
PLAYORDER=
